PathFileType	4	(X/Y/Z)	TRAIL_071_EP_01_markers.trc
DataRate	CameraRate	NumFrames	NumMarkers	Units	OrigDataRate	OrigDataStartFrame	OrigNumFrames
200	200	4	44	mm	200	203	270
Frame#	Time	RSH			LSH			C7			LELB			LWR			RELB			RWR			RASI			LASI			SACR			P1			P2			LTHLP			LTHLD			LTHAP			LTHAD			LLEPI			LPAT			LTIAP			LTIAD			LTILAT			LLMAL			LHEEL			LMFS			LMFL			LP5MT			LP1MT			LTOE			RTHLP			RTHLD			RTHAP			RTHAD			RLEPI			RPAT			RTIAP			RTIAD			RTILAT			RLMAL			RHEEL			RMFS			RMFL			RP5MT			RP1MT			RTOE			
		X1	Y1	Z1	X2	Y2	Z2	X3	Y3	Z3	X4	Y4	Z4	X5	Y5	Z5	X6	Y6	Z6	X7	Y7	Z7	X8	Y8	Z8	X9	Y9	Z9	X10	Y10	Z10	X11	Y11	Z11	X12	Y12	Z12	X13	Y13	Z13	X14	Y14	Z14	X15	Y15	Z15	X16	Y16	Z16	X17	Y17	Z17	X18	Y18	Z18	X19	Y19	Z19	X20	Y20	Z20	X21	Y21	Z21	X22	Y22	Z22	X23	Y23	Z23	X24	Y24	Z24	X25	Y25	Z25	X26	Y26	Z26	X27	Y27	Z27	X28	Y28	Z28	X29	Y29	Z29	X30	Y30	Z30	X31	Y31	Z31	X32	Y32	Z32	X33	Y33	Z33	X34	Y34	Z34	X35	Y35	Z35	X36	Y36	Z36	X37	Y37	Z37	X38	Y38	Z38	X39	Y39	Z39	X40	Y40	Z40	X41	Y41	Z41	X42	Y42	Z42	X43	Y43	Z43	X44	Y44	Z44
203	        1.0099999905	     3650.2255201340	     1446.9248056412	      186.9674324989	     3634.7023248672	     1438.4635686874	     -153.4956097603	     3556.6116571426	     1463.7244939804	       16.4144635201	     3581.8068981171	     1125.7586479187	     -267.5858438015	     3824.0125179291	     1111.2756729126	     -169.5044934750	     3497.1398115158	     1200.3951072693	      364.1909956932	     3687.1163845062	     1008.3200931549	      282.8748226166	     3647.1308469772	      929.7720193863	      164.1742587090	     3657.2647094727	      940.8926963806	     -102.3283600807	     3476.6892194748	      990.5190467834	       37.4422073364	     3477.8208732605	      991.7951226234	       -7.3784589767	     3482.1771383286	      988.7682795525	       79.3294906616	     3572.7485418320	      654.0961861610	     -122.4884390831	     3577.7271986008	      543.5394644737	      -93.6095714569	     3676.8398284912	      645.9519267082	      -62.8890991211	     3660.0602865219	      546.5945005417	      -41.8935418129	     3576.0964155197	      449.3879377842	      -70.3109502792	     3637.8620862961	      430.6222796440	      -26.7364978790	     3528.4719467163	      289.4963324070	       -3.1715035439	     3459.2341184616	      208.5032314062	        8.0163478851	     3449.8130083084	      273.3032107353	      -54.6404719353	     3332.4508666992	      123.7336918712	      -11.3030076027	     3251.8117427826	       96.4285284281	       38.8621687889	     3426.5320301056	       79.3499648571	       38.4079217911	     3394.3634033203	       36.6323627532	      -47.9181408882	     3457.0226669312	       25.8451327682	      -50.8397817612	     3457.0776224136	       30.5609870702	       56.9676160812	     3497.2709417343	       34.9960550666	       27.0788073540	     3656.8580865860	      677.3651242256	      209.1284394264	     3698.1514692307	      588.4253382683	      197.4601745605	     3750.7506608963	      704.8221230507	      128.5948753357	     3786.1062288284	      616.9367432594	      126.4373064041	     3727.7921438217	      488.4862601757	      176.2370467186	     3793.4315204620	      450.0790238380	      127.1868348122	     3635.2010965347	      380.5103003979	      142.3032283783	     3528.6183357239	      350.7761359215	      137.6081109047	     3566.2747621536	      433.0583810806	      186.2953901291	     3363.6791706085	      358.6067557335	      153.7923812866	     3314.2145872116	      390.0789916515	       95.5920219421	     3377.2823810577	      225.7044911385	      120.5224394798	     3316.2119388580	      239.3343150616	      194.1053867340	     3327.4852037430	      187.5550150871	      205.2251696587	     3346.6056585312	      166.0476922989	      104.5799851418	     3368.4743642807	      129.5074671507	      143.6679363251
204	        1.0149999857	     3665.0487184525	     1450.2443075180	      187.4976754189	     3652.9917716980	     1442.1385526657	     -152.7108550072	     3573.3801126480	     1466.6489362717	       16.2073373795	     3604.0489673615	     1128.9912462234	     -267.5573825836	     3843.8358306885	     1120.3019618988	     -164.6065413952	     3508.4162950516	     1205.9190273285	      363.7364506721	     3698.7618207932	     1013.2018327713	      285.4418754578	     3664.6987199783	      933.9403510094	      163.9243364334	     3675.0148534775	      942.6172375679	     -102.2554039955	     3494.4566488266	      993.6539530754	       36.6836190224	     3495.7246780396	      994.5257902145	       -8.0819129944	     3499.6500015259	      992.2751784325	       78.7793397903	     3583.6882591248	      656.1871767044	     -121.0134625435	     3586.1407518387	      545.6100106239	      -92.1318531036	     3688.2270574570	      646.8822956085	      -60.1968169212	     3668.2220697403	      546.8273758888	      -40.0720834732	     3581.8082094193	      451.4403343201	      -69.1403746605	     3643.0026292801	      431.6228628159	      -25.8553028107	     3532.5894355774	      292.1086847782	       -2.4979710579	     3462.8462791443	      211.7874324322	        8.1768035889	     3453.5533189774	      276.6532301903	      -54.3274879456	     3335.2090120316	      127.3984909058	      -11.9720101357	     3254.4660568237	      101.9298136234	       38.0482673645	     3429.4590950012	       80.5935636163	       37.3312830925	     3395.3322172165	       37.4340340495	      -48.1176972389	     3457.2726488113	       25.7671065629	      -50.9648323059	     3457.9912424088	       30.6679103523	       56.8450093269	     3497.4044561386	       34.9367223680	       27.1450281143	     3678.1070232391	      682.8963160515	      209.0940475464	     3720.6870317459	      594.6627855301	      196.4018940926	     3770.7564830780	      712.4329209328	      128.3028721809	     3807.8409433365	      625.3818273544	      125.4601478577	     3752.1886825562	      495.2707290649	      174.5311021805	     3818.9265727997	      459.1060876846	      125.4074573517	     3663.7444496155	      383.4013342857	      141.4483189583	     3558.2786798477	      349.0296602249	      137.2858881950	     3592.5506353378	      433.1179261208	      185.5134963989	     3392.9969072342	      349.6658205986	      154.4198989868	     3341.2326574326	      378.5805106163	       96.6536402702	     3413.0896329880	      217.8225368261	      120.8673715591	     3352.1322011948	      228.2176166773	      195.1107978821	     3366.1535978317	      177.1367490292	      206.0648202896	     3385.4467868805	      156.5048843622	      105.2592396736	     3410.1237058640	      121.2929338217	      144.3112492561
205	        1.0199999809	     3679.9186468124	     1453.9004564285	      188.0142688751	     3671.3068485260	     1446.0994005203	     -151.9428491592	     3590.1540517807	     1469.7302579880	       16.1051154137	     3626.1435747147	     1132.4928998947	     -267.4533426762	     3863.2514476776	     1129.3375492096	     -159.7059667110	     3519.6411609650	     1211.3525867462	      362.7434372902	     3710.5777263641	     1018.1851387024	      287.7610921860	     3682.4511289597	      938.2926225662	      163.6980772018	     3692.9761171341	      944.6974992752	     -102.1446585655	     3512.4244689941	      996.9187974930	       35.9971523285	     3513.7417316437	      997.4696040154	       -8.8201165199	     3517.1784162521	      996.0203170776	       78.0674815178	     3595.2827930450	      658.7828397751	     -119.5870041847	     3594.7108268738	      548.2298135757	      -90.7066464424	     3699.5536088943	      647.8668451309	      -56.9140315056	     3676.4842271805	      547.2946166992	      -38.0066037178	     3587.6928567886	      454.1490972042	      -68.0591464043	     3648.2591629028	      433.4635734558	      -24.7886776924	     3536.6222858429	      294.9249446392	       -1.8040537834	     3466.2832021713	      215.2410447598	        8.2899332047	     3457.5718641281	      280.6490361691	      -54.0971159935	     3338.5331630707	      131.3948035240	      -12.5058293343	     3258.0860853195	      108.0588325858	       36.7969870567	     3431.9884777069	       81.2123939395	       36.5415811539	     3396.2385654449	       38.2624641061	      -48.0669140816	     3457.5545787811	       25.6663579494	      -51.0603785515	     3458.4100246429	       30.7413022965	       56.7966103554	     3497.5613355637	       34.8645038903	       27.1640419960	     3699.1120576859	      688.5253787041	      209.0544700623	     3742.9567575455	      601.0386347771	      195.4847574234	     3790.5975580215	      720.0923562050	      127.8864145279	     3829.2248249054	      633.9283585548	      124.3253946304	     3776.0351896286	      502.1889805794	      172.9207038879	     3843.7751531601	      468.1648313999	      123.6091852188	     3691.5553808212	      386.3664269447	      140.4090523720	     3588.0606174469	      347.1464514732	      136.6450786591	     3618.6367273331	      432.8328669071	      184.7230792046	     3422.5507974625	      340.4068648815	      154.8663377762	     3368.6246871948	      366.6020333767	       97.6172089577	     3449.1103887558	      210.0713551044	      121.0317015648	     3388.7097835541	      217.0966267586	      196.1247920990	     3405.4713249207	      166.8886542320	      206.6658139229	     3424.9746799469	      146.9406336546	      105.4863929749	     3451.1481523514	      113.2963970304	      145.0008749962
206	        1.0249999762	     3694.8676109314	     1457.5964212418	      188.5264515877	     3689.5377635956	     1450.2960443497	     -151.1939764023	     3606.9214344025	     1472.9776382446	       15.9894824028	     3648.0717658997	     1136.2807750702	     -267.4758732319	     3882.2546005249	     1138.3721828461	     -154.9417972565	     3531.3872098923	     1216.9835567474	      361.9051575661	     3722.5949764252	     1023.1804847717	      289.8360490799	     3700.4503011703	      942.9158568382	      163.3222699165	     3711.1560106277	      947.1248388290	     -101.9459962845	     3530.5386781693	     1000.2646446228	       35.4257822037	     3531.9473743439	     1000.7178783417	       -9.5716118813	     3534.9743366241	      999.8055696487	       77.6424407959	     3607.5093746185	      661.8262529373	     -118.2776093483	     3603.5791635513	      551.4409542084	      -89.4674658775	     3710.8645439148	      648.9731073380	      -53.2681941986	     3685.0467920303	      548.3581423759	      -35.9429121017	     3593.8640832901	      457.4903249741	      -66.9406652451	     3653.6608934402	      435.7356727123	      -23.3680605888	     3540.9497022629	      298.8974153996	       -1.6940236092	     3470.2330827713	      219.2079126835	        8.1987977028	     3461.8473052979	      285.2374017239	      -54.0212392807	     3342.3359394073	      135.8729004860	      -13.3269429207	     3261.9224786758	      114.5747378469	       36.0286235809	     3434.5752000809	       81.6557928920	       35.9064340591	     3397.5559473038	       39.2714701593	      -48.2318401337	     3457.8764438629	       25.5969427526	      -51.2077808380	     3458.6876630783	       30.5227879435	       56.6658973694	     3498.2957839966	       35.0980907679	       27.0689129829	     3720.0895547867	      694.2911148071	      209.0851068497	     3765.0401592255	      607.5539588928	      194.6402788162	     3810.2905750275	      727.7529239655	      127.2962093353	     3850.1902818680	      642.3625349998	      122.9928135872	     3799.2917299271	      509.0095400810	      171.2563037872	     3868.0061101913	      477.1673083305	      121.8178272247	     3719.2187309265	      389.3563151360	      138.9105319977	     3617.5442934036	      345.2927470207	      135.9272599220	     3644.5100307465	      432.4494302273	      184.0444803238	     3452.4877071381	      331.1559259892	      155.4693579674	     3396.3521718979	      354.1720807552	       98.5980033875	     3486.2644672394	      202.4832367897	      121.2257146835	     3425.6155490875	      206.0984373093	      196.5872049332	     3445.4610347748	      156.9247394800	      207.1711421013	     3464.6004438400	      137.9076838493	      105.8663129807	     3493.9904212952	      105.8809310198	      144.5178985596
